<svg width="15" height="13" viewBox="0 0 15 13" fill="none" xmlns="http://www.w3.org/2000/svg">
<path d="M14.875 4.11719C14.875 8.76562 7.9827 12.5282 7.68918 12.6836C7.61182 12.7252 7.52534 12.747 7.4375 12.747C7.34966 12.747 7.26318 12.7252 7.18582 12.6836C6.8923 12.5282 0 8.76562 0 4.11719C0.00123033 3.02562 0.435399 1.97911 1.20726 1.20726C1.97911 0.435399 3.02562 0.00123033 4.11719 0C5.48848 0 6.6891 0.589687 7.4375 1.58645C8.1859 0.589687 9.38652 0 10.7578 0C11.8494 0.00123033 12.8959 0.435399 13.6677 1.20726C14.4396 1.97911 14.8738 3.02562 14.875 4.11719Z" fill="white"/>
</svg>
